<svg width="152" height="27" viewBox="0 0 152 27" fill="none" xmlns="http://www.w3.org/2000/svg">
<path d="M110.027 10.5269H101.606V13.8283H110.027V10.5269Z" fill="#121212"/>
<path d="M12.7321 13.6311V21.9132C12.7321 22.4921 12.2674 22.9606 11.6944 22.9606H9.93608C9.87902 22.9606 9.83228 22.9141 9.83228 22.8559V14.5738C9.83228 13.9952 10.2967 13.5264 10.87 13.5264H12.6283C12.6856 13.5264 12.7321 13.5735 12.7321 13.6311Z" fill="#121212"/>
<path d="M7.84444 1.09885V10.7925C7.84444 10.8501 7.79831 10.8973 7.74064 10.8973H5.97174C5.3981 10.8973 4.93372 10.4281 4.93372 9.84985V0.156193C4.93372 0.09831 4.97985 0.0517578 5.03752 0.0517578H6.80641C7.38006 0.0517578 7.84444 0.520333 7.84444 1.09885Z" fill="#121212"/>
<path d="M7.84444 18.4981V25.949C7.84444 26.5272 7.38006 26.9961 6.80641 26.9961H5.03752C4.98015 26.9961 4.93372 26.9495 4.93372 26.8913V19.4407C4.93372 18.8622 5.3981 18.3933 5.97174 18.3933H7.74064C7.79831 18.3933 7.84444 18.4405 7.84444 18.4981Z" fill="#121212"/>
<path d="M2.90223 21.0606V25.9488C2.90223 26.527 2.43785 26.9959 1.86481 26.9959H0.103806C0.0467447 26.9959 0 26.9496 0 26.8911V22.003C0 21.4244 0.464688 20.9556 1.03803 20.9556H2.79842C2.85609 20.9556 2.90223 21.0027 2.90223 21.0606Z" fill="#121212"/>
<path d="M12.7321 5.13846V9.38441C12.7321 9.4423 12.6859 9.48946 12.6283 9.48946H10.87C10.2967 9.48946 9.83228 9.02058 9.83228 8.44206V4.1958C9.83228 4.13823 9.87872 4.09106 9.93608 4.09106H11.6944C12.2671 4.09106 12.7321 4.55994 12.7321 5.13846Z" fill="#121212"/>
<path d="M2.90223 1.09934V5.98813C2.90223 6.04601 2.85609 6.09287 2.79842 6.09287H1.03803C0.464688 6.09287 0 5.62398 0 5.04608V0.156681C0 0.0987982 0.0464412 0.0522461 0.103806 0.0522461H1.86481C2.43785 0.0522461 2.90223 0.520822 2.90223 1.09934Z" fill="#121212"/>
<path d="M26.7043 26.8952V19.934C26.7043 19.2675 26.4421 18.6281 25.9753 18.1567C25.127 17.3008 24.2786 16.4457 23.4303 15.5897C22.9632 15.1187 22.3301 14.8538 21.6696 14.8538H14.7713C14.7142 14.8538 14.6675 14.9006 14.6675 14.9585V21.9194C14.6675 22.5861 14.9297 23.2256 15.3968 23.6969C16.2452 24.5526 17.0929 25.408 17.9412 26.2637C18.4083 26.735 19.0415 26.9999 19.7019 26.9999H26.6005C26.6579 26.9999 26.7043 26.9528 26.7043 26.8952Z" fill="#121212"/>
<path d="M26.7043 0.104739V7.06597C26.7043 7.73238 26.4421 8.37185 25.9753 8.84318C25.127 9.69917 24.2786 10.5542 23.4303 11.4102C22.9632 11.8813 22.3301 12.1462 21.6696 12.1462H14.7713C14.7142 12.1462 14.6675 12.0993 14.6675 12.0414V5.0805C14.6675 4.41378 14.9297 3.77432 15.3968 3.30299C16.2452 2.4473 17.0929 1.59192 17.9412 0.73624C18.4083 0.26491 19.0415 0 19.7019 0H26.6005C26.6579 0 26.7043 0.0471622 26.7043 0.104739Z" fill="url(#paint0_linear)"/>
<path d="M128.083 0.634586V3.93604H121.045C120.587 3.93604 120.13 3.95502 119.676 4.02883C118.383 4.31396 117.45 5.56655 117.352 6.86815C117.315 7.5508 117.321 8.23558 117.324 8.9167H117.319V10.5267H126.23V13.8281H117.324C117.33 18.0343 117.325 22.2377 117.325 26.4423H113.941C113.946 22.3369 113.941 18.2309 113.946 14.1222V10.0005C113.991 8.51214 113.818 6.99984 114.081 5.52552C114.457 3.53791 115.895 1.79714 117.778 1.08907C118.651 0.730136 119.571 0.645304 120.501 0.63581C120.576 0.634279 120.649 0.634277 120.725 0.634277H128.083V0.634586Z" fill="#121212"/>
<path d="M84.8076 0.94494C84.8027 1.9412 84.8027 2.93868 84.8091 3.93646H82.9768C82.5163 3.93646 82.0565 3.95545 81.6012 4.02926C80.3083 4.31438 79.3759 5.56698 79.2775 6.86857C79.2417 7.55122 79.2478 8.23601 79.2508 8.91712H79.2463V10.5274H84.8076V13.8286H79.2505C79.2569 18.0347 79.2523 22.2381 79.2523 26.4427H75.8681C75.873 22.3373 75.8681 18.2313 75.873 14.1226V10.001C75.9179 8.51256 75.7437 6.99996 76.0068 5.52594C76.3826 3.53833 77.8222 1.79756 79.703 1.0898C80.6482 0.702693 81.648 0.63501 82.6538 0.63501H84.8079V0.647566H84.8094C84.8091 0.746794 84.8076 0.845713 84.8076 0.94494Z" fill="#121212"/>
<path d="M97.6714 26.1311V26.441H95.5173C94.5115 26.441 93.512 26.3733 92.5665 25.9862C90.686 25.2781 89.2464 23.5377 88.8703 21.5504C88.6069 20.0763 88.7814 18.5634 88.7368 17.075V12.9534C88.7316 8.84467 88.7368 4.73899 88.7316 0.633301H92.1158C92.1158 3.62176 92.1173 6.60991 92.1173 9.59806V10.5266H97.6711V13.8281H92.1173V16.5489H92.1097V18.1589H92.1143C92.1113 18.8403 92.1052 19.5248 92.141 20.2077C92.239 21.509 93.1718 22.7616 94.4647 23.0467C94.92 23.1206 95.3801 23.1395 95.84 23.1395H97.6726C97.6665 24.137 97.6665 25.1348 97.6714 26.1311Z" fill="#121212"/>
<path d="M151.759 26.4433H147.337L147.078 25.9536L146.114 24.1145C145.779 23.461 145.432 22.8077 145.086 22.1579C144.115 20.3436 143.132 18.54 142.389 16.6391C142.216 16.1969 142.057 15.75 141.912 15.2949L141.75 14.7743L141.588 15.2949C141.443 15.7497 141.284 16.1966 141.111 16.6391C140.368 18.54 139.385 20.3436 138.414 22.1579C138.068 22.8077 137.722 23.461 137.386 24.1145L136.422 25.9536L136.164 26.4433H131.741L135.922 19.1146C136.29 18.4708 136.658 17.8274 137.028 17.1836V17.1821C137.134 16.995 137.242 16.8057 137.348 16.614L137.398 16.5261L138.268 15.0043L138.396 14.7792C138.62 14.3434 138.746 13.8494 138.746 13.3254C138.746 12.7809 138.609 12.2676 138.369 11.8192L137.179 9.72626L134.606 5.20039L133.695 3.60632L132.28 1.12166L132.001 0.633789H136.365L136.63 1.12166L138.021 3.65839L138.517 4.56001C139.172 5.77646 139.816 7.00701 140.495 8.22346C140.771 8.72725 141.02 9.24483 141.253 9.77036C141.37 10.0304 141.481 10.2931 141.589 10.5571L141.75 10.9522L141.911 10.5571C142.02 10.2931 142.131 10.0301 142.247 9.77036C142.48 9.24483 142.729 8.72725 143.005 8.22346C143.684 7.00701 144.328 5.77646 144.983 4.56001L145.479 3.65839L146.87 1.12166L147.135 0.633789H151.499L151.22 1.12166L149.806 3.60632L148.895 5.20039L146.321 9.72626L145.131 11.8192C144.891 12.2676 144.754 12.7809 144.754 13.3254C144.754 13.8494 144.88 14.3434 145.104 14.7792L145.232 15.0043L146.102 16.5261L146.153 16.614C146.259 16.806 146.366 16.995 146.472 17.1821V17.1836C146.842 17.8274 147.21 18.4708 147.578 19.1146L151.759 26.4433Z" fill="#121212"/>
<path d="M59.8903 4.6465C62.4499 4.20732 65.2377 4.35249 67.549 5.64673C69.3989 6.67545 70.6245 8.58956 71.1465 10.6203C71.6877 12.6092 71.6498 14.6874 71.6158 16.7296C71.5441 19.224 70.9347 21.8578 69.221 23.7435C67.515 25.6309 64.9199 26.4535 62.4402 26.4382C59.9695 26.5053 57.3007 25.9228 55.506 24.0966C53.7277 22.3255 53.0715 19.7413 52.9352 17.2925C52.8405 14.3745 52.7856 11.2669 54.227 8.62968C55.3449 6.47883 57.5447 5.05106 59.8903 4.6465ZM60.8512 7.32227C59.6123 7.5342 58.4435 8.21409 57.7381 9.27895C56.7052 10.8436 56.4745 12.7828 56.4569 14.621C56.4457 16.4147 56.4059 18.2566 56.9814 19.9805C57.3799 21.2512 58.1915 22.448 59.408 23.0394C60.9195 23.7551 62.6975 23.8105 64.2919 23.36C65.6328 22.9784 66.7301 21.9366 67.2727 20.6518C68.1654 18.5791 68.0428 16.2619 68.0218 14.052C67.9481 12.1186 67.6096 9.98854 66.1719 8.58006C64.7854 7.21354 62.6748 7.02275 60.8512 7.32227Z" fill="#121212"/>
<path d="M49.1211 22.2682C48.6054 23.7921 47.3498 24.9645 45.9081 25.5932C43.9713 26.463 41.7784 26.5901 39.6972 26.3077C37.8276 26.0373 35.9364 25.2352 34.7262 23.7156C34.1535 23.0127 33.789 22.1708 33.5623 21.2946L33.4727 20.9198L33.3376 20.3486H36.6514C37.05 21.9396 38.5305 22.9894 40.0712 23.2764C41.7578 23.5906 43.6645 23.4871 45.1059 22.451C45.9746 21.8499 46.4672 20.6864 46.1075 19.658C45.7454 18.6008 44.714 17.9947 43.7358 17.618C41.7672 16.8781 39.7528 16.2585 37.7905 15.4978C36.2599 14.8801 34.7866 13.7656 34.2958 12.1075C33.7711 10.2782 34.0919 8.13688 35.3821 6.70084C36.5646 5.37383 38.3223 4.73528 40.039 4.51171C42.285 4.2618 44.7165 4.48109 46.6393 5.7787C47.7872 6.54189 48.6057 7.73935 48.9721 9.06912L49.0644 9.44398L49.2088 10.0268H45.8902C45.5047 8.82198 44.4369 7.97977 43.2475 7.67229C41.6573 7.25363 39.8265 7.29069 38.4118 8.21804C37.5617 8.76624 37.0897 9.87826 37.4218 10.8635C37.6992 11.7421 38.5357 12.2646 39.34 12.5862C41.0888 13.2339 42.8505 13.8372 44.6017 14.4804C46.0249 15.0053 47.4345 15.7569 48.3857 16.9801C49.5384 18.4507 49.7051 20.5293 49.1211 22.2682Z" fill="#121212"/>
<defs>
<linearGradient id="paint0_linear" x1="26.7043" y1="-7.23968e-07" x2="14.5587" y2="12.0364" gradientUnits="userSpaceOnUse">
<stop stop-color="#89DD65"/>
<stop offset="1" stop-color="#AEDD65"/>
</linearGradient>
</defs>
</svg>
