<svg width="24" height="24" viewBox="0 0 24 24" fill="none" xmlns="http://www.w3.org/2000/svg">
<path d="M12.0002 7.0061C9.24205 7.0061 7.00623 9.24193 7.00623 12C7.00623 14.7581 9.24205 16.994 12.0002 16.994C14.7582 16.994 16.9941 14.7581 16.9941 12C16.9909 9.24328 14.7569 7.00925 12.0002 7.0061Z" fill="#E0E0E0"/>
<path d="M12.3832 5.33621V3.38299C12.3832 3.17145 12.2117 3 12.0002 3C11.7886 3 11.6172 3.17145 11.6172 3.38299V5.33621C11.6172 5.54775 11.7886 5.7192 12.0002 5.7192C12.2117 5.7192 12.3832 5.54775 12.3832 5.33621Z" fill="#E0E0E0"/>
<path d="M12.0002 18.2808C11.7886 18.2808 11.6172 18.4522 11.6172 18.6637V20.617C11.6172 20.8285 11.7886 21 12.0002 21C12.2117 21 12.3832 20.8285 12.3832 20.617V18.6637C12.3832 18.4522 12.2117 18.2808 12.0002 18.2808Z" fill="#E0E0E0"/>
<path d="M20.6173 11.6172H18.6641C18.4526 11.6172 18.2811 11.7886 18.2811 12.0002C18.2811 12.2117 18.4526 12.3832 18.6641 12.3832H20.6173C20.8289 12.3832 21.0003 12.2117 21.0003 12.0002C21.0003 11.7886 20.8289 11.6172 20.6173 11.6172Z" fill="#E0E0E0"/>
<path d="M5.7192 12.0002C5.7192 11.7886 5.54775 11.6172 5.33621 11.6172H3.38299C3.17145 11.6172 3 11.7886 3 12.0002C3 12.2117 3.17145 12.3832 3.38299 12.3832H5.33621C5.54775 12.3832 5.7192 12.2117 5.7192 12.0002Z" fill="#E0E0E0"/>
<path d="M16.9888 7.5529L18.3474 6.19436C18.496 6.0446 18.4954 5.80299 18.3462 5.65399C18.1972 5.50483 17.9556 5.50424 17.8058 5.65279L16.4473 7.01134C16.3499 7.10783 16.3114 7.24921 16.3467 7.38191C16.3822 7.51446 16.4857 7.61798 16.6183 7.65344C16.751 7.68874 16.8924 7.6503 16.9888 7.5529Z" fill="#E0E0E0"/>
<path d="M7.01154 16.4469L5.65299 17.8055C5.55545 17.9021 5.51715 18.0435 5.55246 18.176C5.58776 18.3086 5.69144 18.4123 5.82399 18.4476C5.95654 18.4829 6.09791 18.4446 6.19456 18.347L7.55311 16.9885C7.6505 16.892 7.68895 16.7506 7.65364 16.6179C7.61818 16.4854 7.51466 16.3818 7.38211 16.3464C7.24941 16.3111 7.10804 16.3495 7.01154 16.4469Z" fill="#E0E0E0"/>
<path d="M16.9888 16.4469C16.8924 16.3495 16.751 16.3111 16.6183 16.3464C16.4857 16.3818 16.3822 16.4854 16.3467 16.6179C16.3114 16.7506 16.3499 16.892 16.4473 16.9885L17.8058 18.347C17.9556 18.4956 18.1972 18.495 18.3462 18.3458C18.4954 18.1968 18.496 17.9552 18.3474 17.8055L16.9888 16.4469Z" fill="#E0E0E0"/>
<path d="M7.01147 7.5529C7.10796 7.6503 7.24934 7.68874 7.38204 7.65344C7.51459 7.61798 7.61811 7.51446 7.65357 7.38191C7.68887 7.24921 7.65043 7.10783 7.55303 7.01134L6.19448 5.65279C6.04473 5.50424 5.80312 5.50483 5.65411 5.65399C5.50496 5.80299 5.50436 6.0446 5.65291 6.19436L7.01147 7.5529Z" fill="#E0E0E0"/>
</svg>
